<svg 
  xmlns="http://www.w3.org/2000/svg" width="612.001" height="612">
  <path d="M610.588 230.612c-1.66-7.649-8.976-12.311-16.958-12.311H390.41L323.898 26.399c-2.896-8.352-8.649-12.311-17.632-12.311-8.976 0-15.063 3.959-17.958 12.311l-66.52 191.902H18.576c-8.983 0-14.638 3.995-17.632 12.311-2.328 8.976-.355 15.66 5.988 20.619l162.975 127.384-59.204 195.23c-2.597 8.571 0 15.631 6.655 20.619 7.315 4.328 14.979 4.86 21.946 0l166.962-116.407 166.628 116.407c3.555 2.483 7.322 3.327 10.977 3.327 10.31 0 18.292-7.982 18.292-18.292 0-1.66-.227-4.022-1.327-7.648l-58.537-193.236 162.968-127.384c6.555-5.123 8.315-11.977 5.321-20.619zM409.703 357.329c-5.605 4.378-8.352 12.871-6.315 19.619L450.615 533.6l-134.373-93.128c-6.748-4.676-13.765-4.52-20.286 0L161.591 533.6l47.227-156.652c2.036-6.748-.709-15.241-6.322-19.619L71.792 255.219h163.634c8.315 0 14.056-3.959 16.965-12.304l53.875-154.658 53.549 154.658c2.888 8.352 8.649 12.304 17.291 12.304h163.308l-130.711 102.11z"/>
</svg>